<?xml version="1.0" encoding="UTF-8"?>
<svg width="26px" height="27px" viewBox="0 0 26 27" version="1.1" xmlns="http://www.w3.org/2000/svg" xmlns:xlink="http://www.w3.org/1999/xlink">
    <!-- Generator: Sketch 52.1 (67048) - http://www.bohemiancoding.com/sketch -->
    <title>Group</title>
    <desc>Created with Sketch.</desc>
    <g id="Pages" stroke="none" stroke-width="1" fill="none" fill-rule="evenodd">
        <g id="side-menu" transform="translate(-15.000000, -131.000000)" fill="#FFFFFF" fill-rule="nonzero" stroke="#FFFFFF">
            <g id="Group" transform="translate(16.000000, 132.000000)">
                <path d="M3.3069156,9.01585828 C3.10487712,8.99471391 2.89369404,8.99471391 2.69422747,9.01585828 C1.15822061,9.17186942 0,10.4551039 0,12.0000714 C0,13.417887 1.0076205,14.6539753 2.3961707,14.938567 C2.59363688,14.9794271 2.79681844,15 3,15 C3.20318156,15 3.40636312,14.9794271 3.60354353,14.938567 C4.99209373,14.6539753 6,13.4181727 6,11.9997857 C6,10.4548182 4.84177939,9.17186942 3.3069156,9.01585828 Z" id="Shape"></path>
                <path d="M3,0 C1.34568489,0 0,1.3456208 0,2.99957137 C0,4.65409344 1.34568489,6 3,6 C4.65431511,6 6,4.65409344 6,2.99957137 C6,1.3456208 4.65431511,0 3,0 Z" id="Shape"></path>
                <path d="M3,19 C1.34568489,19 0,20.3459707 0,22 C0,23.6540293 1.34568489,25 3,25 C4.65431511,25 6,23.6540293 6,22 C6,20.3459707 4.65431511,19 3,19 Z" id="Shape"></path>
                <path d="M12.3069156,9.01585828 C12.1048771,8.99471391 11.893694,8.99471391 11.6942275,9.01585828 C10.1582206,9.17186942 9,10.4551039 9,12.0000714 C9,13.417887 10.0079063,14.6539753 11.3961707,14.938567 C11.5936369,14.9794271 11.7968184,15 12,15 C12.2031816,15 12.4063631,14.9794271 12.6035435,14.938567 C13.9920937,14.6539753 15,13.4181727 15,11.9997857 C15,10.4548182 13.8414936,9.17186942 12.3069156,9.01585828 Z" id="Shape"></path>
                <path d="M12,0 C10.3456849,0 9,1.3456208 9,2.99957137 C9,4.65409344 10.3456849,6 12,6 C13.6540293,6 15,4.65409344 15,2.99957137 C15,1.3456208 13.6540293,0 12,0 Z" id="Shape"></path>
                <path d="M12,19 C10.3456849,19 9,20.3459707 9,22 C9,23.6540293 10.3456849,25 12,25 C13.6540293,25 15,23.6540293 15,22 C15,20.3459707 13.6540293,19 12,19 Z" id="Shape"></path>
                <path d="M21.3072013,9.01564453 C21.1060202,8.99478516 20.8931225,8.99478516 20.6945132,9.01564453 C19.1585064,9.17166125 18,10.4549416 18,11.9999643 C18,13.4178305 19.0076205,14.6539629 20.3961707,14.9385648 C20.5933511,14.9794264 20.7968184,15 21,15 C21.2031815,15 21.4066489,14.9794264 21.6038293,14.9385648 C22.9920937,14.6539629 23.9999999,13.4181162 23.9999999,11.9996785 C24.0002857,10.4546559 22.8420651,9.17166125 21.3072013,9.01564453 Z" id="Shape"></path>
                <path d="M21,6 C22.6540293,6 24,4.65409344 24,2.99957137 C24,1.3456208 22.6540293,0 21,0 C19.3459707,0 18,1.3456208 18,2.99957137 C18,4.65409344 19.3459707,6 21,6 Z" id="Shape"></path>
                <path d="M21,19 C19.3459707,19 18,20.3459707 18,22 C18,23.6540293 19.3459707,25 21,25 C22.6540293,25 24,23.6540293 24,22 C24,20.3459707 22.6540293,19 21,19 Z" id="Shape"></path>
            </g>
        </g>
    </g>
</svg>