<?xml version="1.0" encoding="UTF-8"?>
<svg width="22px" height="22px" viewBox="0 0 22 22" version="1.1" xmlns="http://www.w3.org/2000/svg" xmlns:xlink="http://www.w3.org/1999/xlink">
    <!-- Generator: Sketch 52.1 (67048) - http://www.bohemiancoding.com/sketch -->
    <title>icons/dark/clock</title>
    <desc>Created with Sketch.</desc>
    <defs>
        <path d="M10.6666667,0 C4.8,0 0,4.8 0,10.6666667 C0,16.5333333 4.8,21.3333333 10.6666667,21.3333333 C16.5333333,21.3333333 21.3333333,16.5333333 21.3333333,10.6666667 C21.3333333,4.8 16.5333333,0 10.6666667,0 Z M10.6666667,2.66666667 C15.0933333,2.66666667 18.6666667,6.24 18.6666667,10.6666667 C18.6666667,15.0933333 15.0933333,18.6666667 10.6666667,18.6666667 C6.24,18.6666667 2.66666667,15.0933333 2.66666667,10.6666667 C2.66666667,6.24 6.24,2.66666667 10.6666667,2.66666667 Z M9.33333333,5.33333333 L9.33333333,11.2533333 L9.76,11.6 L11.0933333,12.9333333 L12,13.9466667 L13.92,12.0266667 L12.9066667,11.12 L12,10.2133333 L12,5.38666667 L9.33333333,5.38666667 L9.33333333,5.33333333 Z" id="path-1"></path>
    </defs>
    <g id="Pages" stroke="none" stroke-width="1" fill="none" fill-rule="evenodd">
        <g id="side-menu" transform="translate(-18.000000, -18.000000)">
            <g id="icons/clock" transform="translate(17.000000, 17.000000)">
                <g id="icons/dark/clock" transform="translate(1.333333, 1.333333)">
                    <mask id="mask-2" fill="white">
                        <use xlink:href="#path-1"></use>
                    </mask>
                    <use id="Mask" fill="#212B36" fill-rule="nonzero" xlink:href="#path-1"></use>
                    <g id="color/background" mask="url(#mask-2)" fill="#F5F6F6">
                        <g transform="translate(-1.333333, -1.333333)">
                            <rect x="0" y="0" width="24" height="24" rx="4"></rect>
                        </g>
                    </g>
                </g>
            </g>
        </g>
    </g>
</svg>