<?xml version="1.0" encoding="UTF-8"?>
<svg width="25px" height="21px" viewBox="0 0 25 21" version="1.1" xmlns="http://www.w3.org/2000/svg" xmlns:xlink="http://www.w3.org/1999/xlink">
    <!-- Generator: Sketch 52.1 (67048) - http://www.bohemiancoding.com/sketch -->
    <title>icons/dark/list-rich</title>
    <desc>Created with Sketch.</desc>
    <defs>
        <path d="M0,0 L0,9 L9,9 L9,0 L0,0 Z M12,0 L12,3 L24,3 L24,0 L12,0 Z M12,6 L12,9 L21,9 L21,6 L12,6 Z M0,12 L0,21 L9,21 L9,12 L0,12 Z M12,12 L12,15 L24,15 L24,12 L12,12 Z M12,18 L12,21 L21,21 L21,18 L12,18 Z" id="path-1"></path>
    </defs>
    <g id="Pages" stroke="none" stroke-width="1" fill="none" fill-rule="evenodd">
        <g id="side-menu" transform="translate(-16.000000, -192.000000)">
            <g id="icons/list-rich" transform="translate(15.000000, 189.000000)">
                <g id="icons/dark/list-rich" transform="translate(1.500000, 3.000000)">
                    <mask id="mask-2" fill="white">
                        <use xlink:href="#path-1"></use>
                    </mask>
                    <use id="Mask" fill="#212B36" fill-rule="nonzero" xlink:href="#path-1"></use>
                    <g id="color/background" mask="url(#mask-2)" fill="#F5F6F6">
                        <g transform="translate(-1.500000, -3.000000)">
                            <rect x="0" y="0" width="27" height="27" rx="4"></rect>
                        </g>
                    </g>
                </g>
            </g>
        </g>
    </g>
</svg>