<?xml version="1.0" encoding="UTF-8"?>
<svg width="20px" height="30px" viewBox="0 0 20 30" version="1.1" xmlns="http://www.w3.org/2000/svg" xmlns:xlink="http://www.w3.org/1999/xlink">
    <!-- Generator: Sketch 52.1 (67048) - http://www.bohemiancoding.com/sketch -->
    <title>Shape</title>
    <desc>Created with Sketch.</desc>
    <g id="Pages" stroke="none" stroke-width="1" fill="none" fill-rule="evenodd">
        <g id="side-menu" transform="translate(-18.000000, -72.000000)" fill="#000" fill-rule="nonzero">
            <polygon id="Shape" points="32.7368421 85.9285714 32.7368421 84.8571429 30.6315789 83.7857143 29.5789474 81.6428571 27.4736842 77.3571429 28.5263158 74.1428571 28.5263158 73.0714286 27.4736842 73.0714286 26.4210526 73.0714286 26.4210526 72 24.3157895 72 24.3157895 74.1428571 23.2631579 75.2142857 21.1578947 77.3571429 20.1052632 80.5714286 18 83.7857143 18 87 19.0526316 87 20.1052632 90.2142857 21.1578947 90.2142857 21.1578947 95.5714286 19.0526316 97.7142857 20.1052632 98.7857143 23.2631579 99.8571429 23.2631579 100.928571 25.3684211 102 25.3684211 100.928571 26.4210526 100.928571 27.4736842 99.8571429 30.6315789 99.8571429 32.7368421 102 32.7368421 96.6428571 34.8421053 95.5714286 34.8421053 93.4285714 36.9473684 91.2857143 38 88.0714286"></polygon>
        </g>
    </g>
</svg>
